<svg width="3396" height="388" viewBox="0 0 3396 388" fill="none" xmlns="http://www.w3.org/2000/svg">
<mask id="path-1-outside-1_39_308" maskUnits="userSpaceOnUse" x="0" y="0" width="3396" height="388" fill="black">
<rect fill="white" width="3396" height="388"/>
<path fill-rule="evenodd" clip-rule="evenodd" d="M112.823 5H58.9115H6.2C5.53726 5 5 5.53726 5 6.2V58.9115V112.823V166.734V219.446C5 220.109 5.53726 220.646 6.2 220.646H58.9115H112.823H166.734H220.646H274.557H328.469V274.557H274.557H220.646H166.734H112.823H58.9115H6.2C5.53726 274.557 5 275.095 5 275.757V328.469V381.18C5 381.843 5.53726 382.38 6.2 382.38H58.9115H112.823H166.734H220.646H274.557H328.469H381.18C381.843 382.38 382.38 381.843 382.38 381.18V328.469V274.557V220.646V167.934C382.38 167.272 381.843 166.734 381.18 166.734H328.469H274.557H220.646H166.734V114.023C166.734 113.36 166.197 112.823 165.534 112.823H112.823H58.9115V58.9115H112.823H166.734H220.646V111.623C220.646 112.286 221.183 112.823 221.846 112.823H274.557H328.469H381.18C381.843 112.823 382.38 112.286 382.38 111.623V58.9115V6.2C382.38 5.53726 381.843 5 381.18 5H328.469H274.557H220.646H166.734H112.823ZM3337.91 5C3337.25 5 3336.71 5.53726 3336.71 6.2V58.9115V112.823V166.734V220.646H3282.8V167.934C3282.8 167.272 3282.26 166.734 3281.6 166.734H3228.89V114.023C3228.89 113.36 3228.35 112.823 3227.69 112.823H3174.98V60.1115C3174.98 59.4487 3174.44 58.9115 3173.78 58.9115H3121.07V6.2C3121.07 5.53726 3120.53 5 3119.87 5H3067.16H3014.44C3013.78 5 3013.24 5.53726 3013.24 6.2V58.9115V112.823V166.734V220.646V274.557V328.469V381.18C3013.24 381.843 3013.78 382.38 3014.44 382.38H3067.16H3119.87C3120.53 382.38 3121.07 381.843 3121.07 381.18V329.669C3121.07 329.006 3120.53 328.469 3119.87 328.469H3067.16V274.557H3119.87C3120.53 274.557 3121.07 274.02 3121.07 273.357V220.646V166.734V112.823H3174.98V165.534C3174.98 166.197 3175.52 166.734 3176.18 166.734H3228.89V219.446C3228.89 220.109 3229.43 220.646 3230.09 220.646H3282.8V273.357C3282.8 274.02 3283.34 274.557 3284 274.557H3336.71V328.469V381.18C3336.71 381.843 3337.25 382.38 3337.91 382.38H3389.42C3390.09 382.38 3390.62 381.843 3390.62 381.18V328.469V274.557V220.646V166.734V112.823V58.9115V6.2C3390.62 5.53726 3390.09 5 3389.42 5H3337.91ZM437.495 5C436.832 5 436.295 5.53726 436.295 6.2V58.9115V112.823V166.734V220.646V274.557V328.469V381.18C436.295 381.843 436.832 382.38 437.495 382.38H489.006C489.669 382.38 490.206 381.843 490.206 381.18V328.469V274.557V220.646H544.118H598.029H651.941H705.852H759.764H812.475C813.138 220.646 813.675 220.109 813.675 219.446V166.734V112.823V58.9115V6.2C813.675 5.53726 813.138 5 812.475 5H759.764H705.852H651.941H598.029H544.118H490.206H437.495ZM490.206 166.734V112.823H544.118H598.029H650.741C651.404 112.823 651.941 112.286 651.941 111.623V58.9115H705.852H759.764V112.823H707.052C706.39 112.823 705.852 113.36 705.852 114.023V166.734H651.941H598.029H544.118H490.206ZM867.558 6.2C867.558 5.53726 868.095 5 868.758 5H921.47H975.381H1029.29H1083.2H1137.12H1191.03H1243.74C1244.4 5 1244.94 5.53726 1244.94 6.2V57.7115C1244.94 58.3742 1244.4 58.9115 1243.74 58.9115H1191.03H1137.12H1083.2H1029.29H975.381V111.623C975.381 112.286 974.844 112.823 974.181 112.823H921.47V166.734H975.381H1029.29H1083.2H1137.12H1191.03H1243.74C1244.4 166.734 1244.94 167.272 1244.94 167.934V219.446C1244.94 220.109 1244.4 220.646 1243.74 220.646H1191.03H1137.12H1083.2H1029.29H975.381V273.357C975.381 274.02 974.844 274.557 974.181 274.557H921.47V328.469H975.381H1029.29H1083.2H1137.12H1191.03H1243.74C1244.4 328.469 1244.94 329.006 1244.94 329.669V381.18C1244.94 381.843 1244.4 382.38 1243.74 382.38H1191.03H1137.12H1083.2H1029.29H975.381H921.47H868.758C868.095 382.38 867.558 381.843 867.558 381.18V328.469V274.557V220.646V166.734V112.823V58.9115V6.2ZM1300.05 5C1299.39 5 1298.85 5.53726 1298.85 6.2V58.9115V112.823V166.734V220.646V274.557V328.469V381.18C1298.85 381.843 1299.39 382.38 1300.05 382.38H1352.77H1406.68H1460.59H1514.5H1568.41H1622.32H1675.03C1675.7 382.38 1676.23 381.843 1676.23 381.18V329.669C1676.23 329.006 1675.7 328.469 1675.03 328.469H1622.32H1568.41H1514.5H1460.59H1406.68H1352.77V274.557H1405.48C1406.14 274.557 1406.68 274.02 1406.68 273.357V220.646H1460.59H1514.5H1568.41H1622.32H1675.03C1675.7 220.646 1676.23 220.109 1676.23 219.446V167.934C1676.23 167.272 1675.7 166.734 1675.03 166.734H1622.32H1568.41H1514.5H1460.59H1406.68H1352.77V112.823H1405.48C1406.14 112.823 1406.68 112.286 1406.68 111.623V58.9115H1460.59H1514.5H1568.41H1622.32H1675.03C1675.7 58.9115 1676.23 58.3742 1676.23 57.7115V6.2C1676.23 5.53726 1675.7 5 1675.03 5H1622.32H1568.41H1514.5H1460.59H1406.68H1352.77H1300.05ZM1719.39 6.2C1719.39 5.53726 1719.93 5 1720.59 5H1773.3H1827.21H1881.12H1935.04H1988.95H2041.66C2042.32 5 2042.86 5.53726 2042.86 6.2V58.9115H1988.95H1935.04H1881.12H1827.21V112.823V166.734V219.446C1827.21 220.109 1826.68 220.646 1826.01 220.646H1773.3V274.557H1826.01C1826.68 274.557 1827.21 275.095 1827.21 275.757V328.469H1881.12H1935.04H1988.95H2042.86V381.18C2042.86 381.843 2042.32 382.38 2041.66 382.38H1988.95H1935.04H1881.12H1827.21H1773.3H1720.59C1719.93 382.38 1719.39 381.843 1719.39 381.18V328.469V274.557V220.646V166.734V112.823V58.9115V6.2ZM2042.86 328.469V274.557V220.646V166.734V112.823V58.9115H2095.57C2096.23 58.9115 2096.77 59.4487 2096.77 60.1115V112.823V166.734V220.646V274.557V327.269C2096.77 327.932 2096.23 328.469 2095.57 328.469H2042.86ZM2151.85 5C2151.19 5 2150.65 5.53726 2150.65 6.2V58.9115V112.823V166.734V220.646V274.557V328.469V381.18C2150.65 381.843 2151.19 382.38 2151.85 382.38H2204.56H2257.27C2257.94 382.38 2258.47 381.843 2258.47 381.18V328.469V274.557H2312.39V327.269C2312.39 327.932 2312.92 328.469 2313.58 328.469H2366.3H2420.21V381.18C2420.21 381.843 2420.75 382.38 2421.41 382.38H2474.12H2526.83C2527.49 382.38 2528.03 381.843 2528.03 381.18V329.669C2528.03 329.006 2527.49 328.469 2526.83 328.469H2474.12H2420.21V275.757C2420.21 275.095 2419.67 274.557 2419.01 274.557H2366.3H2312.39V220.646H2366.3H2420.21H2474.12H2526.83C2527.49 220.646 2528.03 220.109 2528.03 219.446V166.734V112.823V58.9115V6.2C2528.03 5.53726 2527.49 5 2526.83 5H2474.12H2420.21H2366.3H2312.39H2258.47H2204.56H2151.85ZM2258.47 166.734H2312.39H2366.3H2420.21H2474.12V112.823H2421.41C2420.75 112.823 2420.21 112.286 2420.21 111.623V58.9115H2366.3H2312.39H2258.47V112.823V166.734ZM2583.15 5C2582.49 5 2581.95 5.53726 2581.95 6.2V58.9115V112.823V166.734V220.646V274.557V328.469V381.18C2581.95 381.843 2582.49 382.38 2583.15 382.38H2635.86H2689.77H2743.68H2797.59H2851.51H2905.42H2958.13C2958.79 382.38 2959.33 381.843 2959.33 381.18V328.469V274.557V220.646V166.734V112.823V58.9115V6.2C2959.33 5.53726 2958.79 5 2958.13 5H2905.42H2852.71C2852.04 5 2851.51 5.53726 2851.51 6.2V58.9115V112.823V165.534C2851.51 166.197 2852.04 166.734 2852.71 166.734H2905.42V220.646V274.557V328.469H2851.51H2797.59H2743.68H2689.77V274.557V220.646V167.934C2689.77 167.272 2689.23 166.734 2688.57 166.734H2635.86V112.823V58.9115H2688.57C2689.23 58.9115 2689.77 58.3742 2689.77 57.7115V6.2C2689.77 5.53726 2689.23 5 2688.57 5H2635.86H2583.15Z"/>
</mask>
<g filter="url(#filter0_i_39_308)">
<path fill-rule="evenodd" clip-rule="evenodd" d="M112.823 5H58.9115H6.2C5.53726 5 5 5.53726 5 6.2V58.9115V112.823V166.734V219.446C5 220.109 5.53726 220.646 6.2 220.646H58.9115H112.823H166.734H220.646H274.557H328.469V274.557H274.557H220.646H166.734H112.823H58.9115H6.2C5.53726 274.557 5 275.095 5 275.757V328.469V381.18C5 381.843 5.53726 382.38 6.2 382.38H58.9115H112.823H166.734H220.646H274.557H328.469H381.18C381.843 382.38 382.38 381.843 382.38 381.18V328.469V274.557V220.646V167.934C382.38 167.272 381.843 166.734 381.18 166.734H328.469H274.557H220.646H166.734V114.023C166.734 113.36 166.197 112.823 165.534 112.823H112.823H58.9115V58.9115H112.823H166.734H220.646V111.623C220.646 112.286 221.183 112.823 221.846 112.823H274.557H328.469H381.18C381.843 112.823 382.38 112.286 382.38 111.623V58.9115V6.2C382.38 5.53726 381.843 5 381.18 5H328.469H274.557H220.646H166.734H112.823ZM3337.91 5C3337.25 5 3336.71 5.53726 3336.71 6.2V58.9115V112.823V166.734V220.646H3282.8V167.934C3282.8 167.272 3282.26 166.734 3281.6 166.734H3228.89V114.023C3228.89 113.36 3228.35 112.823 3227.69 112.823H3174.98V60.1115C3174.98 59.4487 3174.44 58.9115 3173.78 58.9115H3121.07V6.2C3121.07 5.53726 3120.53 5 3119.87 5H3067.16H3014.44C3013.78 5 3013.24 5.53726 3013.24 6.2V58.9115V112.823V166.734V220.646V274.557V328.469V381.18C3013.24 381.843 3013.78 382.38 3014.44 382.38H3067.16H3119.87C3120.53 382.38 3121.07 381.843 3121.07 381.18V329.669C3121.07 329.006 3120.53 328.469 3119.87 328.469H3067.16V274.557H3119.87C3120.53 274.557 3121.07 274.02 3121.07 273.357V220.646V166.734V112.823H3174.98V165.534C3174.98 166.197 3175.52 166.734 3176.18 166.734H3228.89V219.446C3228.89 220.109 3229.43 220.646 3230.09 220.646H3282.8V273.357C3282.8 274.02 3283.34 274.557 3284 274.557H3336.71V328.469V381.18C3336.71 381.843 3337.25 382.38 3337.91 382.38H3389.42C3390.09 382.38 3390.62 381.843 3390.62 381.18V328.469V274.557V220.646V166.734V112.823V58.9115V6.2C3390.62 5.53726 3390.09 5 3389.42 5H3337.91ZM437.495 5C436.832 5 436.295 5.53726 436.295 6.2V58.9115V112.823V166.734V220.646V274.557V328.469V381.18C436.295 381.843 436.832 382.38 437.495 382.38H489.006C489.669 382.38 490.206 381.843 490.206 381.18V328.469V274.557V220.646H544.118H598.029H651.941H705.852H759.764H812.475C813.138 220.646 813.675 220.109 813.675 219.446V166.734V112.823V58.9115V6.2C813.675 5.53726 813.138 5 812.475 5H759.764H705.852H651.941H598.029H544.118H490.206H437.495ZM490.206 166.734V112.823H544.118H598.029H650.741C651.404 112.823 651.941 112.286 651.941 111.623V58.9115H705.852H759.764V112.823H707.052C706.39 112.823 705.852 113.36 705.852 114.023V166.734H651.941H598.029H544.118H490.206ZM867.558 6.2C867.558 5.53726 868.095 5 868.758 5H921.47H975.381H1029.29H1083.2H1137.12H1191.03H1243.74C1244.4 5 1244.94 5.53726 1244.94 6.2V57.7115C1244.94 58.3742 1244.4 58.9115 1243.74 58.9115H1191.03H1137.12H1083.2H1029.29H975.381V111.623C975.381 112.286 974.844 112.823 974.181 112.823H921.47V166.734H975.381H1029.29H1083.2H1137.12H1191.03H1243.74C1244.4 166.734 1244.94 167.272 1244.94 167.934V219.446C1244.94 220.109 1244.4 220.646 1243.74 220.646H1191.03H1137.12H1083.2H1029.29H975.381V273.357C975.381 274.02 974.844 274.557 974.181 274.557H921.47V328.469H975.381H1029.29H1083.2H1137.12H1191.03H1243.74C1244.4 328.469 1244.94 329.006 1244.94 329.669V381.18C1244.94 381.843 1244.4 382.38 1243.74 382.38H1191.03H1137.12H1083.2H1029.29H975.381H921.47H868.758C868.095 382.38 867.558 381.843 867.558 381.18V328.469V274.557V220.646V166.734V112.823V58.9115V6.2ZM1300.05 5C1299.39 5 1298.85 5.53726 1298.85 6.2V58.9115V112.823V166.734V220.646V274.557V328.469V381.18C1298.85 381.843 1299.39 382.38 1300.05 382.38H1352.77H1406.68H1460.59H1514.5H1568.41H1622.32H1675.03C1675.7 382.38 1676.23 381.843 1676.23 381.18V329.669C1676.23 329.006 1675.7 328.469 1675.03 328.469H1622.32H1568.41H1514.5H1460.59H1406.68H1352.77V274.557H1405.48C1406.14 274.557 1406.68 274.02 1406.68 273.357V220.646H1460.59H1514.5H1568.41H1622.32H1675.03C1675.7 220.646 1676.23 220.109 1676.23 219.446V167.934C1676.23 167.272 1675.7 166.734 1675.03 166.734H1622.32H1568.41H1514.5H1460.59H1406.68H1352.77V112.823H1405.48C1406.14 112.823 1406.68 112.286 1406.68 111.623V58.9115H1460.59H1514.5H1568.41H1622.32H1675.03C1675.7 58.9115 1676.23 58.3742 1676.23 57.7115V6.2C1676.23 5.53726 1675.7 5 1675.03 5H1622.32H1568.41H1514.5H1460.59H1406.68H1352.77H1300.05ZM1719.39 6.2C1719.39 5.53726 1719.93 5 1720.59 5H1773.3H1827.21H1881.12H1935.04H1988.95H2041.66C2042.32 5 2042.86 5.53726 2042.86 6.2V58.9115H1988.95H1935.04H1881.12H1827.21V112.823V166.734V219.446C1827.21 220.109 1826.68 220.646 1826.01 220.646H1773.3V274.557H1826.01C1826.68 274.557 1827.21 275.095 1827.21 275.757V328.469H1881.12H1935.04H1988.95H2042.86V381.18C2042.86 381.843 2042.32 382.38 2041.66 382.38H1988.95H1935.04H1881.12H1827.21H1773.3H1720.59C1719.93 382.38 1719.39 381.843 1719.39 381.18V328.469V274.557V220.646V166.734V112.823V58.9115V6.2ZM2042.86 328.469V274.557V220.646V166.734V112.823V58.9115H2095.57C2096.23 58.9115 2096.77 59.4487 2096.77 60.1115V112.823V166.734V220.646V274.557V327.269C2096.77 327.932 2096.23 328.469 2095.57 328.469H2042.86ZM2151.85 5C2151.19 5 2150.65 5.53726 2150.65 6.2V58.9115V112.823V166.734V220.646V274.557V328.469V381.18C2150.65 381.843 2151.19 382.38 2151.85 382.38H2204.56H2257.27C2257.94 382.38 2258.47 381.843 2258.47 381.18V328.469V274.557H2312.39V327.269C2312.39 327.932 2312.92 328.469 2313.58 328.469H2366.3H2420.21V381.18C2420.21 381.843 2420.75 382.38 2421.41 382.38H2474.12H2526.83C2527.49 382.38 2528.03 381.843 2528.03 381.18V329.669C2528.03 329.006 2527.49 328.469 2526.83 328.469H2474.12H2420.21V275.757C2420.21 275.095 2419.67 274.557 2419.01 274.557H2366.3H2312.39V220.646H2366.3H2420.21H2474.12H2526.83C2527.49 220.646 2528.03 220.109 2528.03 219.446V166.734V112.823V58.9115V6.2C2528.03 5.53726 2527.49 5 2526.83 5H2474.12H2420.21H2366.3H2312.39H2258.47H2204.56H2151.85ZM2258.47 166.734H2312.39H2366.3H2420.21H2474.12V112.823H2421.41C2420.75 112.823 2420.21 112.286 2420.21 111.623V58.9115H2366.3H2312.39H2258.47V112.823V166.734ZM2583.15 5C2582.49 5 2581.95 5.53726 2581.95 6.2V58.9115V112.823V166.734V220.646V274.557V328.469V381.18C2581.95 381.843 2582.49 382.38 2583.15 382.38H2635.86H2689.77H2743.68H2797.59H2851.51H2905.42H2958.13C2958.79 382.38 2959.33 381.843 2959.33 381.18V328.469V274.557V220.646V166.734V112.823V58.9115V6.2C2959.33 5.53726 2958.79 5 2958.13 5H2905.42H2852.71C2852.04 5 2851.51 5.53726 2851.51 6.2V58.9115V112.823V165.534C2851.51 166.197 2852.04 166.734 2852.71 166.734H2905.42V220.646V274.557V328.469H2851.51H2797.59H2743.68H2689.77V274.557V220.646V167.934C2689.77 167.272 2689.23 166.734 2688.57 166.734H2635.86V112.823V58.9115H2688.57C2689.23 58.9115 2689.77 58.3742 2689.77 57.7115V6.2C2689.77 5.53726 2689.23 5 2688.57 5H2635.86H2583.15Z" fill="url(#paint0_linear_39_308)"/>
</g>
<path d="M328.469 220.646H333.469V215.646H328.469V220.646ZM328.469 274.557V279.557H333.469V274.557H328.469ZM166.734 166.734H161.734V171.734H166.734V166.734ZM58.9115 112.823H53.9115V117.823H58.9115V112.823ZM58.9115 58.9115V53.9115H53.9115V58.9115H58.9115ZM220.646 58.9115H225.646V53.9115H220.646V58.9115ZM3336.71 220.646V225.646H3341.71V220.646H3336.71ZM3121.07 58.9115H3116.07V63.9115H3121.07V58.9115ZM3067.16 328.469H3062.16V333.469H3067.16V328.469ZM3067.16 274.557V269.557H3062.16V274.557H3067.16ZM3121.07 112.823V107.823H3116.07V112.823H3121.07ZM3336.71 274.557H3341.71V269.557H3336.71V274.557ZM490.206 220.646V215.646H485.206V220.646H490.206ZM490.206 112.823V107.823H485.206V112.823H490.206ZM490.206 166.734H485.206V171.734H490.206V166.734ZM651.941 58.9115V53.9115H646.941V58.9115H651.941ZM759.764 58.9115H764.764V53.9115H759.764V58.9115ZM759.764 112.823V117.823H764.764V112.823H759.764ZM705.852 166.734V171.734H710.852V166.734H705.852ZM975.381 58.9115V53.9115H970.381V58.9115H975.381ZM921.47 112.823V107.823H916.47V112.823H921.47ZM921.47 166.734H916.47V171.734H921.47V166.734ZM975.381 220.646V215.646H970.381V220.646H975.381ZM921.47 274.557V269.557H916.47V274.557H921.47ZM921.47 328.469H916.47V333.469H921.47V328.469ZM1352.77 328.469H1347.77V333.469H1352.77V328.469ZM1352.77 274.557V269.557H1347.77V274.557H1352.77ZM1406.68 220.646V215.646H1401.68V220.646H1406.68ZM1352.77 166.734H1347.77V171.734H1352.77V166.734ZM1352.77 112.823V107.823H1347.77V112.823H1352.77ZM1406.68 58.9115V53.9115H1401.68V58.9115H1406.68ZM1827.21 58.9115V53.9115H1822.21V58.9115H1827.21ZM1773.3 220.646V215.646H1768.3V220.646H1773.3ZM1773.3 274.557H1768.3V279.557H1773.3V274.557ZM1827.21 328.469H1822.21V333.469H1827.21V328.469ZM2258.47 274.557V269.557H2253.47V274.557H2258.47ZM2312.39 220.646V215.646H2307.39V220.646H2312.39ZM2258.47 166.734H2253.47V171.734H2258.47V166.734ZM2474.12 166.734V171.734H2479.12V166.734H2474.12ZM2474.12 112.823H2479.12V107.823H2474.12V112.823ZM2420.21 58.9115H2425.21V53.9115H2420.21V58.9115ZM2258.47 58.9115V53.9115H2253.47V58.9115H2258.47ZM2905.42 166.734H2910.42V161.734H2905.42V166.734ZM2905.42 328.469V333.469H2910.42V328.469H2905.42ZM2689.77 328.469H2684.77V333.469H2689.77V328.469ZM2635.86 166.734H2630.86V171.734H2635.86V166.734ZM2635.86 58.9115V53.9115H2630.86V58.9115H2635.86ZM58.9115 10H112.823V0H58.9115V10ZM6.2 10H58.9115V0H6.2V10ZM10 6.2C10 8.29868 8.29868 10 6.2 10V0C2.77584 0 0 2.77583 0 6.2H10ZM10 58.9115V6.2H0V58.9115H10ZM10 112.823V58.9115H0V112.823H10ZM10 166.734V112.823H0V166.734H10ZM10 219.446V166.734H0V219.446H10ZM6.2 215.646C8.29869 215.646 10 217.347 10 219.446H0C0 222.87 2.77583 225.646 6.2 225.646V215.646ZM58.9115 215.646H6.2V225.646H58.9115V215.646ZM112.823 215.646H58.9115V225.646H112.823V215.646ZM166.734 215.646H112.823V225.646H166.734V215.646ZM220.646 215.646H166.734V225.646H220.646V215.646ZM274.557 215.646H220.646V225.646H274.557V215.646ZM328.469 215.646H274.557V225.646H328.469V215.646ZM333.469 274.557V220.646H323.469V274.557H333.469ZM274.557 279.557H328.469V269.557H274.557V279.557ZM220.646 279.557H274.557V269.557H220.646V279.557ZM166.734 279.557H220.646V269.557H166.734V279.557ZM112.823 279.557H166.734V269.557H112.823V279.557ZM58.9115 279.557H112.823V269.557H58.9115V279.557ZM6.2 279.557H58.9115V269.557H6.2V279.557ZM10 275.757C10 277.856 8.29872 279.557 6.2 279.557V269.557C2.77579 269.557 0 272.333 0 275.757H10ZM10 328.469V275.757H0V328.469H10ZM10 381.18V328.469H0V381.18H10ZM6.2 377.38C8.29873 377.38 10 379.082 10 381.18H0C0 384.604 2.77579 387.38 6.2 387.38V377.38ZM58.9115 377.38H6.2V387.38H58.9115V377.38ZM112.823 377.38H58.9115V387.38H112.823V377.38ZM166.734 377.38H112.823V387.38H166.734V377.38ZM220.646 377.38H166.734V387.38H220.646V377.38ZM274.557 377.38H220.646V387.38H274.557V377.38ZM328.469 377.38H274.557V387.38H328.469V377.38ZM381.18 377.38H328.469V387.38H381.18V377.38ZM377.38 381.18C377.38 379.082 379.082 377.38 381.18 377.38V387.38C384.605 387.38 387.38 384.605 387.38 381.18H377.38ZM377.38 328.469V381.18H387.38V328.469H377.38ZM377.38 274.557V328.469H387.38V274.557H377.38ZM377.38 220.646V274.557H387.38V220.646H377.38ZM377.38 167.934V220.646H387.38V167.934H377.38ZM381.18 171.734C379.082 171.734 377.38 170.033 377.38 167.934H387.38C387.38 164.51 384.605 161.734 381.18 161.734V171.734ZM328.469 171.734H381.18V161.734H328.469V171.734ZM274.557 171.734H328.469V161.734H274.557V171.734ZM220.646 171.734H274.557V161.734H220.646V171.734ZM166.734 171.734H220.646V161.734H166.734V171.734ZM161.734 114.023V166.734H171.734V114.023H161.734ZM165.534 117.823C163.436 117.823 161.734 116.122 161.734 114.023H171.734C171.734 110.599 168.959 107.823 165.534 107.823V117.823ZM112.823 117.823H165.534V107.823H112.823V117.823ZM58.9115 117.823H112.823V107.823H58.9115V117.823ZM53.9115 58.9115V112.823H63.9115V58.9115H53.9115ZM112.823 53.9115H58.9115V63.9115H112.823V53.9115ZM166.734 53.9115H112.823V63.9115H166.734V53.9115ZM220.646 53.9115H166.734V63.9115H220.646V53.9115ZM225.646 111.623V58.9115H215.646V111.623H225.646ZM221.846 107.823C223.945 107.823 225.646 109.524 225.646 111.623H215.646C215.646 115.047 218.422 117.823 221.846 117.823V107.823ZM274.557 107.823H221.846V117.823H274.557V107.823ZM328.469 107.823H274.557V117.823H328.469V107.823ZM381.18 107.823H328.469V117.823H381.18V107.823ZM377.38 111.623C377.38 109.524 379.082 107.823 381.18 107.823V117.823C384.604 117.823 387.38 115.047 387.38 111.623H377.38ZM377.38 58.9115V111.623H387.38V58.9115H377.38ZM377.38 6.2V58.9115H387.38V6.2H377.38ZM381.18 10C379.082 10 377.38 8.29872 377.38 6.2H387.38C387.38 2.77579 384.604 0 381.18 0V10ZM328.469 10H381.18V0H328.469V10ZM274.557 10H328.469V0H274.557V10ZM220.646 10H274.557V0H220.646V10ZM166.734 10H220.646V0H166.734V10ZM112.823 10H166.734V0H112.823V10ZM3341.71 6.2C3341.71 8.29815 3340.01 10 3337.91 10V0C3334.49 0 3331.71 2.77637 3331.71 6.2H3341.71ZM3341.71 58.9115V6.2H3331.71V58.9115H3341.71ZM3341.71 112.823V58.9115H3331.71V112.823H3341.71ZM3341.71 166.734V112.823H3331.71V166.734H3341.71ZM3341.71 220.646V166.734H3331.71V220.646H3341.71ZM3282.8 225.646H3336.71V215.646H3282.8V225.646ZM3277.8 167.934V220.646H3287.8V167.934H3277.8ZM3281.6 171.734C3279.5 171.734 3277.8 170.033 3277.8 167.934H3287.8C3287.8 164.511 3285.03 161.734 3281.6 161.734V171.734ZM3228.89 171.734H3281.6V161.734H3228.89V171.734ZM3223.89 114.023V166.734H3233.89V114.023H3223.89ZM3227.69 117.823C3225.59 117.823 3223.89 116.122 3223.89 114.023H3233.89C3233.89 110.599 3231.11 107.823 3227.69 107.823V117.823ZM3174.98 117.823H3227.69V107.823H3174.98V117.823ZM3179.98 112.823V60.1115H3169.98V112.823H3179.98ZM3179.98 60.1115C3179.98 56.6879 3177.2 53.9115 3173.78 53.9115V63.9115C3171.68 63.9115 3169.98 62.2096 3169.98 60.1115H3179.98ZM3173.78 53.9115H3121.07V63.9115H3173.78V53.9115ZM3126.07 58.9115V6.2H3116.07V58.9115H3126.07ZM3126.07 6.2C3126.07 2.77571 3123.29 0 3119.87 0V10C3117.77 10 3116.07 8.29881 3116.07 6.2H3126.07ZM3119.87 0H3067.16V10H3119.87V0ZM3067.16 0H3014.44V10H3067.16V0ZM3014.44 0C3011.02 0 3008.24 2.77571 3008.24 6.2H3018.24C3018.24 8.29881 3016.54 10 3014.44 10V0ZM3008.24 6.2V58.9115H3018.24V6.2H3008.24ZM3008.24 58.9115V112.823H3018.24V58.9115H3008.24ZM3008.24 112.823V166.734H3018.24V112.823H3008.24ZM3008.24 166.734V220.646H3018.24V166.734H3008.24ZM3008.24 220.646V274.557H3018.24V220.646H3008.24ZM3008.24 274.557V328.469H3018.24V274.557H3008.24ZM3008.24 328.469V381.18H3018.24V328.469H3008.24ZM3008.24 381.18C3008.24 384.605 3011.02 387.38 3014.44 387.38V377.38C3016.54 377.38 3018.24 379.082 3018.24 381.18H3008.24ZM3014.44 387.38H3067.16V377.38H3014.44V387.38ZM3067.16 387.38H3119.87V377.38H3067.16V387.38ZM3119.87 387.38C3123.29 387.38 3126.07 384.605 3126.07 381.18H3116.07C3116.07 379.082 3117.77 377.38 3119.87 377.38V387.38ZM3126.07 381.18V329.669H3116.07V381.18H3126.07ZM3126.07 329.669C3126.07 326.245 3123.29 323.469 3119.87 323.469V333.469C3117.77 333.469 3116.07 331.768 3116.07 329.669H3126.07ZM3119.87 323.469H3067.16V333.469H3119.87V323.469ZM3072.16 328.469V274.557H3062.16V328.469H3072.16ZM3067.16 279.557H3119.87V269.557H3067.16V279.557ZM3119.87 279.557C3123.29 279.557 3126.07 276.782 3126.07 273.357H3116.07C3116.07 271.259 3117.77 269.557 3119.87 269.557V279.557ZM3126.07 273.357V220.646H3116.07V273.357H3126.07ZM3126.07 220.646V166.734H3116.07V220.646H3126.07ZM3126.07 166.734V112.823H3116.07V166.734H3126.07ZM3121.07 117.823H3174.98V107.823H3121.07V117.823ZM3179.98 165.534V112.823H3169.98V165.534H3179.98ZM3176.18 161.734C3178.28 161.734 3179.98 163.436 3179.98 165.534H3169.98C3169.98 168.959 3172.75 171.734 3176.18 171.734V161.734ZM3228.89 161.734H3176.18V171.734H3228.89V161.734ZM3233.89 219.446V166.734H3223.89V219.446H3233.89ZM3230.09 215.646C3232.19 215.646 3233.89 217.348 3233.89 219.446H3223.89C3223.89 222.87 3226.67 225.646 3230.09 225.646V215.646ZM3282.8 215.646H3230.09V225.646H3282.8V215.646ZM3287.8 273.357V220.646H3277.8V273.357H3287.8ZM3284 269.557C3286.1 269.557 3287.8 271.259 3287.8 273.357H3277.8C3277.8 276.782 3280.58 279.557 3284 279.557V269.557ZM3336.71 269.557H3284V279.557H3336.71V269.557ZM3341.71 328.469V274.557H3331.71V328.469H3341.71ZM3341.71 381.18V328.469H3331.71V381.18H3341.71ZM3337.91 377.38C3340.01 377.38 3341.71 379.082 3341.71 381.18H3331.71C3331.71 384.604 3334.49 387.38 3337.91 387.38V377.38ZM3389.42 377.38H3337.91V387.38H3389.42V377.38ZM3385.62 381.18C3385.62 379.082 3387.33 377.38 3389.42 377.38V387.38C3392.85 387.38 3395.62 384.605 3395.62 381.18H3385.62ZM3385.62 328.469V381.18H3395.62V328.469H3385.62ZM3385.62 274.557V328.469H3395.62V274.557H3385.62ZM3385.62 220.646V274.557H3395.62V220.646H3385.62ZM3385.62 166.734V220.646H3395.62V166.734H3385.62ZM3385.62 112.823V166.734H3395.62V112.823H3385.62ZM3385.62 58.9115V112.823H3395.62V58.9115H3385.62ZM3385.62 6.2V58.9115H3395.62V6.2H3385.62ZM3389.42 10C3387.33 10 3385.62 8.29881 3385.62 6.2H3395.62C3395.62 2.77571 3392.85 0 3389.42 0V10ZM3337.91 10H3389.42V0H3337.91V10ZM441.295 6.2C441.295 8.29873 439.594 10 437.495 10V0C434.071 0 431.295 2.77579 431.295 6.2H441.295ZM441.295 58.9115V6.2H431.295V58.9115H441.295ZM441.295 112.823V58.9115H431.295V112.823H441.295ZM441.295 166.734V112.823H431.295V166.734H441.295ZM441.295 220.646V166.734H431.295V220.646H441.295ZM441.295 274.557V220.646H431.295V274.557H441.295ZM441.295 328.469V274.557H431.295V328.469H441.295ZM441.295 381.18V328.469H431.295V381.18H441.295ZM437.495 377.38C439.594 377.38 441.295 379.082 441.295 381.18H431.295C431.295 384.605 434.071 387.38 437.495 387.38V377.38ZM489.006 377.38H437.495V387.38H489.006V377.38ZM485.206 381.18C485.206 379.082 486.908 377.38 489.006 377.38V387.38C492.431 387.38 495.206 384.604 495.206 381.18H485.206ZM485.206 328.469V381.18H495.206V328.469H485.206ZM485.206 274.557V328.469H495.206V274.557H485.206ZM485.206 220.646V274.557H495.206V220.646H485.206ZM544.118 215.646H490.206V225.646H544.118V215.646ZM598.029 215.646H544.118V225.646H598.029V215.646ZM651.941 215.646H598.029V225.646H651.941V215.646ZM705.852 215.646H651.941V225.646H705.852V215.646ZM759.764 215.646H705.852V225.646H759.764V215.646ZM812.475 215.646H759.764V225.646H812.475V215.646ZM808.675 219.446C808.675 217.347 810.377 215.646 812.475 215.646V225.646C815.899 225.646 818.675 222.87 818.675 219.446H808.675ZM808.675 166.734V219.446H818.675V166.734H808.675ZM808.675 112.823V166.734H818.675V112.823H808.675ZM808.675 58.9115V112.823H818.675V58.9115H808.675ZM808.675 6.2V58.9115H818.675V6.2H808.675ZM812.475 10C810.377 10 808.675 8.29881 808.675 6.2H818.675C818.675 2.77571 815.899 0 812.475 0V10ZM759.764 10H812.475V0H759.764V10ZM705.852 10H759.764V0H705.852V10ZM651.941 10H705.852V0H651.941V10ZM598.029 10H651.941V0H598.029V10ZM544.118 10H598.029V0H544.118V10ZM490.206 10H544.118V0H490.206V10ZM437.495 10H490.206V0H437.495V10ZM485.206 112.823V166.734H495.206V112.823H485.206ZM544.118 107.823H490.206V117.823H544.118V107.823ZM598.029 107.823H544.118V117.823H598.029V107.823ZM650.741 107.823H598.029V117.823H650.741V107.823ZM646.941 111.623C646.941 109.524 648.642 107.823 650.741 107.823V117.823C654.165 117.823 656.941 115.047 656.941 111.623H646.941ZM646.941 58.9115V111.623H656.941V58.9115H646.941ZM705.852 53.9115H651.941V63.9115H705.852V53.9115ZM759.764 53.9115H705.852V63.9115H759.764V53.9115ZM764.764 112.823V58.9115H754.764V112.823H764.764ZM707.052 117.823H759.764V107.823H707.052V117.823ZM710.852 114.023C710.852 116.121 709.151 117.823 707.052 117.823V107.823C703.628 107.823 700.852 110.599 700.852 114.023H710.852ZM710.852 166.734V114.023H700.852V166.734H710.852ZM651.941 171.734H705.852V161.734H651.941V171.734ZM598.029 171.734H651.941V161.734H598.029V171.734ZM544.118 171.734H598.029V161.734H544.118V171.734ZM490.206 171.734H544.118V161.734H490.206V171.734ZM868.758 0C865.334 0 862.558 2.77587 862.558 6.2H872.558C872.558 8.29864 870.857 10 868.758 10V0ZM921.47 0H868.758V10H921.47V0ZM975.381 0H921.47V10H975.381V0ZM1029.29 0H975.381V10H1029.29V0ZM1083.2 0H1029.29V10H1083.2V0ZM1137.12 0H1083.2V10H1137.12V0ZM1191.03 0H1137.12V10H1191.03V0ZM1243.74 0H1191.03V10H1243.74V0ZM1249.94 6.2C1249.94 2.77604 1247.16 0 1243.74 0V10C1241.64 10 1239.94 8.29848 1239.94 6.2H1249.94ZM1249.94 57.7115V6.2H1239.94V57.7115H1249.94ZM1243.74 63.9115C1247.16 63.9115 1249.94 61.1354 1249.94 57.7115H1239.94C1239.94 55.613 1241.64 53.9115 1243.74 53.9115V63.9115ZM1191.03 63.9115H1243.74V53.9115H1191.03V63.9115ZM1137.12 63.9115H1191.03V53.9115H1137.12V63.9115ZM1083.2 63.9115H1137.12V53.9115H1083.2V63.9115ZM1029.29 63.9115H1083.2V53.9115H1029.29V63.9115ZM975.381 63.9115H1029.29V53.9115H975.381V63.9115ZM980.381 111.623V58.9115H970.381V111.623H980.381ZM974.181 117.823C977.606 117.823 980.381 115.047 980.381 111.623H970.381C970.381 109.524 972.082 107.823 974.181 107.823V117.823ZM921.47 117.823H974.181V107.823H921.47V117.823ZM926.47 166.734V112.823H916.47V166.734H926.47ZM975.381 161.734H921.47V171.734H975.381V161.734ZM1029.29 161.734H975.381V171.734H1029.29V161.734ZM1083.2 161.734H1029.29V171.734H1083.2V161.734ZM1137.12 161.734H1083.2V171.734H1137.12V161.734ZM1191.03 161.734H1137.12V171.734H1191.03V161.734ZM1243.74 161.734H1191.03V171.734H1243.74V161.734ZM1249.94 167.934C1249.94 164.511 1247.16 161.734 1243.74 161.734V171.734C1241.64 171.734 1239.94 170.033 1239.94 167.934H1249.94ZM1249.94 219.446V167.934H1239.94V219.446H1249.94ZM1243.74 225.646C1247.16 225.646 1249.94 222.87 1249.94 219.446H1239.94C1239.94 217.347 1241.64 215.646 1243.74 215.646V225.646ZM1191.03 225.646H1243.74V215.646H1191.03V225.646ZM1137.12 225.646H1191.03V215.646H1137.12V225.646ZM1083.2 225.646H1137.12V215.646H1083.2V225.646ZM1029.29 225.646H1083.2V215.646H1029.29V225.646ZM975.381 225.646H1029.29V215.646H975.381V225.646ZM980.381 273.357V220.646H970.381V273.357H980.381ZM974.181 279.557C977.606 279.557 980.381 276.781 980.381 273.357H970.381C970.381 271.259 972.082 269.557 974.181 269.557V279.557ZM921.47 279.557H974.181V269.557H921.47V279.557ZM926.47 328.469V274.557H916.47V328.469H926.47ZM975.381 323.469H921.47V333.469H975.381V323.469ZM1029.29 323.469H975.381V333.469H1029.29V323.469ZM1083.2 323.469H1029.29V333.469H1083.2V323.469ZM1137.12 323.469H1083.2V333.469H1137.12V323.469ZM1191.03 323.469H1137.12V333.469H1191.03V323.469ZM1243.74 323.469H1191.03V333.469H1243.74V323.469ZM1249.94 329.669C1249.94 326.245 1247.16 323.469 1243.74 323.469V333.469C1241.64 333.469 1239.94 331.767 1239.94 329.669H1249.94ZM1249.94 381.18V329.669H1239.94V381.18H1249.94ZM1243.74 387.38C1247.16 387.38 1249.94 384.604 1249.94 381.18H1239.94C1239.94 379.082 1241.64 377.38 1243.74 377.38V387.38ZM1191.03 387.38H1243.74V377.38H1191.03V387.38ZM1137.12 387.38H1191.03V377.38H1137.12V387.38ZM1083.2 387.38H1137.12V377.38H1083.2V387.38ZM1029.29 387.38H1083.2V377.38H1029.29V387.38ZM975.381 387.38H1029.29V377.38H975.381V387.38ZM921.47 387.38H975.381V377.38H921.47V387.38ZM868.758 387.38H921.47V377.38H868.758V387.38ZM862.558 381.18C862.558 384.604 865.334 387.38 868.758 387.38V377.38C870.857 377.38 872.558 379.082 872.558 381.18H862.558ZM862.558 328.469V381.18H872.558V328.469H862.558ZM862.558 274.557V328.469H872.558V274.557H862.558ZM862.558 220.646V274.557H872.558V220.646H862.558ZM862.558 166.734V220.646H872.558V166.734H862.558ZM862.558 112.823V166.734H872.558V112.823H862.558ZM862.558 58.9115V112.823H872.558V58.9115H862.558ZM862.558 6.2V58.9115H872.558V6.2H862.558ZM1303.85 6.2C1303.85 8.29848 1302.15 10 1300.05 10V0C1296.63 0 1293.85 2.77604 1293.85 6.2H1303.85ZM1303.85 58.9115V6.2H1293.85V58.9115H1303.85ZM1303.85 112.823V58.9115H1293.85V112.823H1303.85ZM1303.85 166.734V112.823H1293.85V166.734H1303.85ZM1303.85 220.646V166.734H1293.85V220.646H1303.85ZM1303.85 274.557V220.646H1293.85V274.557H1303.85ZM1303.85 328.469V274.557H1293.85V328.469H1303.85ZM1303.85 381.18V328.469H1293.85V381.18H1303.85ZM1300.05 377.38C1302.15 377.38 1303.85 379.082 1303.85 381.18H1293.85C1293.85 384.604 1296.63 387.38 1300.05 387.38V377.38ZM1352.77 377.38H1300.05V387.38H1352.77V377.38ZM1406.68 377.38H1352.77V387.38H1406.68V377.38ZM1460.59 377.38H1406.68V387.38H1460.59V377.38ZM1514.5 377.38H1460.59V387.38H1514.5V377.38ZM1568.41 377.38H1514.5V387.38H1568.41V377.38ZM1622.32 377.38H1568.41V387.38H1622.32V377.38ZM1675.03 377.38H1622.32V387.38H1675.03V377.38ZM1671.23 381.18C1671.23 379.082 1672.94 377.38 1675.03 377.38V387.38C1678.46 387.38 1681.23 384.604 1681.23 381.18H1671.23ZM1671.23 329.669V381.18H1681.23V329.669H1671.23ZM1675.03 333.469C1672.94 333.469 1671.23 331.767 1671.23 329.669H1681.23C1681.23 326.245 1678.46 323.469 1675.03 323.469V333.469ZM1622.32 333.469H1675.03V323.469H1622.32V333.469ZM1568.41 333.469H1622.32V323.469H1568.41V333.469ZM1514.5 333.469H1568.41V323.469H1514.5V333.469ZM1460.59 333.469H1514.5V323.469H1460.59V333.469ZM1406.68 333.469H1460.59V323.469H1406.68V333.469ZM1352.77 333.469H1406.68V323.469H1352.77V333.469ZM1347.77 274.557V328.469H1357.77V274.557H1347.77ZM1405.48 269.557H1352.77V279.557H1405.48V269.557ZM1401.68 273.357C1401.68 271.258 1403.38 269.557 1405.48 269.557V279.557C1408.9 279.557 1411.68 276.782 1411.68 273.357H1401.68ZM1401.68 220.646V273.357H1411.68V220.646H1401.68ZM1460.59 215.646H1406.68V225.646H1460.59V215.646ZM1514.5 215.646H1460.59V225.646H1514.5V215.646ZM1568.41 215.646H1514.5V225.646H1568.41V215.646ZM1622.32 215.646H1568.41V225.646H1622.32V215.646ZM1675.03 215.646H1622.32V225.646H1675.03V215.646ZM1671.23 219.446C1671.23 217.347 1672.94 215.646 1675.03 215.646V225.646C1678.46 225.646 1681.23 222.87 1681.23 219.446H1671.23ZM1671.23 167.934V219.446H1681.23V167.934H1671.23ZM1675.03 171.734C1672.94 171.734 1671.23 170.033 1671.23 167.934H1681.23C1681.23 164.511 1678.46 161.734 1675.03 161.734V171.734ZM1622.32 171.734H1675.03V161.734H1622.32V171.734ZM1568.41 171.734H1622.32V161.734H1568.41V171.734ZM1514.5 171.734H1568.41V161.734H1514.5V171.734ZM1460.59 171.734H1514.5V161.734H1460.59V171.734ZM1406.68 171.734H1460.59V161.734H1406.68V171.734ZM1352.77 171.734H1406.68V161.734H1352.77V171.734ZM1347.77 112.823V166.734H1357.77V112.823H1347.77ZM1405.48 107.823H1352.77V117.823H1405.48V107.823ZM1401.68 111.623C1401.68 109.524 1403.38 107.823 1405.48 107.823V117.823C1408.9 117.823 1411.68 115.048 1411.68 111.623H1401.68ZM1401.68 58.9115V111.623H1411.68V58.9115H1401.68ZM1460.59 53.9115H1406.68V63.9115H1460.59V53.9115ZM1514.5 53.9115H1460.59V63.9115H1514.5V53.9115ZM1568.41 53.9115H1514.5V63.9115H1568.41V53.9115ZM1622.32 53.9115H1568.41V63.9115H1622.32V53.9115ZM1675.03 53.9115H1622.32V63.9115H1675.03V53.9115ZM1671.23 57.7115C1671.23 55.613 1672.94 53.9115 1675.03 53.9115V63.9115C1678.46 63.9115 1681.23 61.1354 1681.23 57.7115H1671.23ZM1671.23 6.2V57.7115H1681.23V6.2H1671.23ZM1675.03 10C1672.94 10 1671.23 8.29848 1671.23 6.2H1681.23C1681.23 2.77604 1678.46 0 1675.03 0V10ZM1622.32 10H1675.03V0H1622.32V10ZM1568.41 10H1622.32V0H1568.41V10ZM1514.5 10H1568.41V0H1514.5V10ZM1460.59 10H1514.5V0H1460.59V10ZM1406.68 10H1460.59V0H1406.68V10ZM1352.77 10H1406.68V0H1352.77V10ZM1300.05 10H1352.77V0H1300.05V10ZM1720.59 0C1717.17 0 1714.39 2.77604 1714.39 6.2H1724.39C1724.39 8.29848 1722.69 10 1720.59 10V0ZM1773.3 0H1720.59V10H1773.3V0ZM1827.21 0H1773.3V10H1827.21V0ZM1881.12 0H1827.21V10H1881.12V0ZM1935.04 0H1881.12V10H1935.04V0ZM1988.95 0H1935.04V10H1988.95V0ZM2041.66 0H1988.95V10H2041.66V0ZM2047.86 6.2C2047.86 2.77604 2045.08 0 2041.66 0V10C2039.56 10 2037.86 8.29848 2037.86 6.2H2047.86ZM2047.86 58.9115V6.2H2037.86V58.9115H2047.86ZM1988.95 63.9115H2042.86V53.9115H1988.95V63.9115ZM1935.04 63.9115H1988.95V53.9115H1935.04V63.9115ZM1881.12 63.9115H1935.04V53.9115H1881.12V63.9115ZM1827.21 63.9115H1881.12V53.9115H1827.21V63.9115ZM1832.21 112.823V58.9115H1822.21V112.823H1832.21ZM1832.21 166.734V112.823H1822.21V166.734H1832.21ZM1832.21 219.446V166.734H1822.21V219.446H1832.21ZM1826.01 225.646C1829.44 225.646 1832.21 222.871 1832.21 219.446H1822.21C1822.21 217.347 1823.91 215.646 1826.01 215.646V225.646ZM1773.3 225.646H1826.01V215.646H1773.3V225.646ZM1778.3 274.557V220.646H1768.3V274.557H1778.3ZM1826.01 269.557H1773.3V279.557H1826.01V269.557ZM1832.21 275.757C1832.21 272.333 1829.44 269.557 1826.01 269.557V279.557C1823.91 279.557 1822.21 277.857 1822.21 275.757H1832.21ZM1832.21 328.469V275.757H1822.21V328.469H1832.21ZM1881.12 323.469H1827.21V333.469H1881.12V323.469ZM1935.04 323.469H1881.12V333.469H1935.04V323.469ZM1988.95 323.469H1935.04V333.469H1988.95V323.469ZM2042.86 323.469H1988.95V333.469H2042.86V323.469ZM2047.86 381.18V328.469H2037.86V381.18H2047.86ZM2041.66 387.38C2045.08 387.38 2047.86 384.604 2047.86 381.18H2037.86C2037.86 379.082 2039.56 377.38 2041.66 377.38V387.38ZM1988.95 387.38H2041.66V377.38H1988.95V387.38ZM1935.04 387.38H1988.95V377.38H1935.04V387.38ZM1881.12 387.38H1935.04V377.38H1881.12V387.38ZM1827.21 387.38H1881.12V377.38H1827.21V387.38ZM1773.3 387.38H1827.21V377.38H1773.3V387.38ZM1720.59 387.38H1773.3V377.38H1720.59V387.38ZM1714.39 381.18C1714.39 384.604 1717.17 387.38 1720.59 387.38V377.38C1722.69 377.38 1724.39 379.082 1724.39 381.18H1714.39ZM1714.39 328.469V381.18H1724.39V328.469H1714.39ZM1714.39 274.557V328.469H1724.39V274.557H1714.39ZM1714.39 220.646V274.557H1724.39V220.646H1714.39ZM1714.39 166.734V220.646H1724.39V166.734H1714.39ZM1714.39 112.823V166.734H1724.39V112.823H1714.39ZM1714.39 58.9115V112.823H1724.39V58.9115H1714.39ZM1714.39 6.2V58.9115H1724.39V6.2H1714.39ZM2037.86 274.557V328.469H2047.86V274.557H2037.86ZM2037.86 220.646V274.557H2047.86V220.646H2037.86ZM2037.86 166.734V220.646H2047.86V166.734H2037.86ZM2037.86 112.823V166.734H2047.86V112.823H2037.86ZM2037.86 58.9115V112.823H2047.86V58.9115H2037.86ZM2095.57 53.9115H2042.86V63.9115H2095.57V53.9115ZM2101.77 60.1115C2101.77 56.6872 2098.99 53.9115 2095.57 53.9115V63.9115C2093.47 63.9115 2091.77 62.2103 2091.77 60.1115H2101.77ZM2101.77 112.823V60.1115H2091.77V112.823H2101.77ZM2101.77 166.734V112.823H2091.77V166.734H2101.77ZM2101.77 220.646V166.734H2091.77V220.646H2101.77ZM2101.77 274.557V220.646H2091.77V274.557H2101.77ZM2101.77 327.269V274.557H2091.77V327.269H2101.77ZM2095.57 333.469C2098.99 333.469 2101.77 330.693 2101.77 327.269H2091.77C2091.77 325.17 2093.47 323.469 2095.57 323.469V333.469ZM2042.86 333.469H2095.57V323.469H2042.86V333.469ZM2155.65 6.2C2155.65 8.29881 2153.95 10 2151.85 10V0C2148.43 0 2145.65 2.77571 2145.65 6.2H2155.65ZM2155.65 58.9115V6.2H2145.65V58.9115H2155.65ZM2155.65 112.823V58.9115H2145.65V112.823H2155.65ZM2155.65 166.734V112.823H2145.65V166.734H2155.65ZM2155.65 220.646V166.734H2145.65V220.646H2155.65ZM2155.65 274.557V220.646H2145.65V274.557H2155.65ZM2155.65 328.469V274.557H2145.65V328.469H2155.65ZM2155.65 381.18V328.469H2145.65V381.18H2155.65ZM2151.85 377.38C2153.95 377.38 2155.65 379.082 2155.65 381.18H2145.65C2145.65 384.605 2148.43 387.38 2151.85 387.38V377.38ZM2204.56 377.38H2151.85V387.38H2204.56V377.38ZM2257.27 377.38H2204.56V387.38H2257.27V377.38ZM2253.47 381.18C2253.47 379.082 2255.17 377.38 2257.27 377.38V387.38C2260.7 387.38 2263.47 384.605 2263.47 381.18H2253.47ZM2253.47 328.469V381.18H2263.47V328.469H2253.47ZM2253.47 274.557V328.469H2263.47V274.557H2253.47ZM2312.39 269.557H2258.47V279.557H2312.39V269.557ZM2317.39 327.269V274.557H2307.39V327.269H2317.39ZM2313.58 323.469C2315.68 323.469 2317.39 325.17 2317.39 327.269H2307.39C2307.39 330.693 2310.16 333.469 2313.58 333.469V323.469ZM2366.3 323.469H2313.58V333.469H2366.3V323.469ZM2420.21 323.469H2366.3V333.469H2420.21V323.469ZM2425.21 381.18V328.469H2415.21V381.18H2425.21ZM2421.41 377.38C2423.51 377.38 2425.21 379.082 2425.21 381.18H2415.21C2415.21 384.605 2417.98 387.38 2421.41 387.38V377.38ZM2474.12 377.38H2421.41V387.38H2474.12V377.38ZM2526.83 377.38H2474.12V387.38H2526.83V377.38ZM2523.03 381.18C2523.03 379.082 2524.73 377.38 2526.83 377.38V387.38C2530.25 387.38 2533.03 384.605 2533.03 381.18H2523.03ZM2523.03 329.669V381.18H2533.03V329.669H2523.03ZM2526.83 333.469C2524.73 333.469 2523.03 331.768 2523.03 329.669H2533.03C2533.03 326.245 2530.25 323.469 2526.83 323.469V333.469ZM2474.12 333.469H2526.83V323.469H2474.12V333.469ZM2420.21 333.469H2474.12V323.469H2420.21V333.469ZM2415.21 275.757V328.469H2425.21V275.757H2415.21ZM2419.01 279.557C2416.91 279.557 2415.21 277.856 2415.21 275.757H2425.21C2425.21 272.334 2422.43 269.557 2419.01 269.557V279.557ZM2366.3 279.557H2419.01V269.557H2366.3V279.557ZM2312.39 279.557H2366.3V269.557H2312.39V279.557ZM2307.39 220.646V274.557H2317.39V220.646H2307.39ZM2366.3 215.646H2312.39V225.646H2366.3V215.646ZM2420.21 215.646H2366.3V225.646H2420.21V215.646ZM2474.12 215.646H2420.21V225.646H2474.12V215.646ZM2526.83 215.646H2474.12V225.646H2526.83V215.646ZM2523.03 219.446C2523.03 217.347 2524.73 215.646 2526.83 215.646V225.646C2530.25 225.646 2533.03 222.87 2533.03 219.446H2523.03ZM2523.03 166.734V219.446H2533.03V166.734H2523.03ZM2523.03 112.823V166.734H2533.03V112.823H2523.03ZM2523.03 58.9115V112.823H2533.03V58.9115H2523.03ZM2523.03 6.2V58.9115H2533.03V6.2H2523.03ZM2526.83 10C2524.73 10 2523.03 8.29881 2523.03 6.2H2533.03C2533.03 2.77571 2530.25 0 2526.83 0V10ZM2474.12 10H2526.83V0H2474.12V10ZM2420.21 10H2474.12V0H2420.21V10ZM2366.3 10H2420.21V0H2366.3V10ZM2312.39 10H2366.3V0H2312.39V10ZM2258.47 10H2312.39V0H2258.47V10ZM2204.56 10H2258.47V0H2204.56V10ZM2151.85 10H2204.56V0H2151.85V10ZM2312.39 161.734H2258.47V171.734H2312.39V161.734ZM2366.3 161.734H2312.39V171.734H2366.3V161.734ZM2420.21 161.734H2366.3V171.734H2420.21V161.734ZM2474.12 161.734H2420.21V171.734H2474.12V161.734ZM2469.12 112.823V166.734H2479.12V112.823H2469.12ZM2421.41 117.823H2474.12V107.823H2421.41V117.823ZM2415.21 111.623C2415.21 115.047 2417.98 117.823 2421.41 117.823V107.823C2423.51 107.823 2425.21 109.524 2425.21 111.623H2415.21ZM2415.21 58.9115V111.623H2425.21V58.9115H2415.21ZM2366.3 63.9115H2420.21V53.9115H2366.3V63.9115ZM2312.39 63.9115H2366.3V53.9115H2312.39V63.9115ZM2258.47 63.9115H2312.39V53.9115H2258.47V63.9115ZM2263.47 112.823V58.9115H2253.47V112.823H2263.47ZM2263.47 166.734V112.823H2253.47V166.734H2263.47ZM2586.95 6.2C2586.95 8.29881 2585.25 10 2583.15 10V0C2579.72 0 2576.95 2.77571 2576.95 6.2H2586.95ZM2586.95 58.9115V6.2H2576.95V58.9115H2586.95ZM2586.95 112.823V58.9115H2576.95V112.823H2586.95ZM2586.95 166.734V112.823H2576.95V166.734H2586.95ZM2586.95 220.646V166.734H2576.95V220.646H2586.95ZM2586.95 274.557V220.646H2576.95V274.557H2586.95ZM2586.95 328.469V274.557H2576.95V328.469H2586.95ZM2586.95 381.18V328.469H2576.95V381.18H2586.95ZM2583.15 377.38C2585.25 377.38 2586.95 379.082 2586.95 381.18H2576.95C2576.95 384.605 2579.72 387.38 2583.15 387.38V377.38ZM2635.86 377.38H2583.15V387.38H2635.86V377.38ZM2689.77 377.38H2635.86V387.38H2689.77V377.38ZM2743.68 377.38H2689.77V387.38H2743.68V377.38ZM2797.59 377.38H2743.68V387.38H2797.59V377.38ZM2851.51 377.38H2797.59V387.38H2851.51V377.38ZM2905.42 377.38H2851.51V387.38H2905.42V377.38ZM2958.13 377.38H2905.42V387.38H2958.13V377.38ZM2954.33 381.18C2954.33 379.082 2956.03 377.38 2958.13 377.38V387.38C2961.55 387.38 2964.33 384.605 2964.33 381.18H2954.33ZM2954.33 328.469V381.18H2964.33V328.469H2954.33ZM2954.33 274.557V328.469H2964.33V274.557H2954.33ZM2954.33 220.646V274.557H2964.33V220.646H2954.33ZM2954.33 166.734V220.646H2964.33V166.734H2954.33ZM2954.33 112.823V166.734H2964.33V112.823H2954.33ZM2954.33 58.9115V112.823H2964.33V58.9115H2954.33ZM2954.33 6.2V58.9115H2964.33V6.2H2954.33ZM2958.13 10C2956.03 10 2954.33 8.29881 2954.33 6.2H2964.33C2964.33 2.77571 2961.55 0 2958.13 0V10ZM2905.42 10H2958.13V0H2905.42V10ZM2852.71 10H2905.42V0H2852.71V10ZM2856.51 6.2C2856.51 8.29881 2854.8 10 2852.71 10V0C2849.28 0 2846.51 2.77571 2846.51 6.2H2856.51ZM2856.51 58.9115V6.2H2846.51V58.9115H2856.51ZM2856.51 112.823V58.9115H2846.51V112.823H2856.51ZM2856.51 165.534V112.823H2846.51V165.534H2856.51ZM2852.71 161.734C2854.8 161.734 2856.51 163.436 2856.51 165.534H2846.51C2846.51 168.959 2849.28 171.734 2852.71 171.734V161.734ZM2905.42 161.734H2852.71V171.734H2905.42V161.734ZM2910.42 220.646V166.734H2900.42V220.646H2910.42ZM2910.42 274.557V220.646H2900.42V274.557H2910.42ZM2910.42 328.469V274.557H2900.42V328.469H2910.42ZM2851.51 333.469H2905.42V323.469H2851.51V333.469ZM2797.59 333.469H2851.51V323.469H2797.59V333.469ZM2743.68 333.469H2797.59V323.469H2743.68V333.469ZM2689.77 333.469H2743.68V323.469H2689.77V333.469ZM2684.77 274.557V328.469H2694.77V274.557H2684.77ZM2684.77 220.646V274.557H2694.77V220.646H2684.77ZM2684.77 167.934V220.646H2694.77V167.934H2684.77ZM2688.57 171.734C2686.47 171.734 2684.77 170.033 2684.77 167.934H2694.77C2694.77 164.51 2692 161.734 2688.57 161.734V171.734ZM2635.86 171.734H2688.57V161.734H2635.86V171.734ZM2630.86 112.823V166.734H2640.86V112.823H2630.86ZM2630.86 58.9115V112.823H2640.86V58.9115H2630.86ZM2688.57 53.9115H2635.86V63.9115H2688.57V53.9115ZM2684.77 57.7115C2684.77 55.6127 2686.47 53.9115 2688.57 53.9115V63.9115C2692 63.9115 2694.77 61.1358 2694.77 57.7115H2684.77ZM2684.77 6.2V57.7115H2694.77V6.2H2684.77ZM2688.57 10C2686.47 10 2684.77 8.29881 2684.77 6.2H2694.77C2694.77 2.77571 2692 0 2688.57 0V10ZM2635.86 10H2688.57V0H2635.86V10ZM2583.15 10H2635.86V0H2583.15V10Z" fill="white" mask="url(#path-1-outside-1_39_308)"/>
<defs>
<filter id="filter0_i_39_308" x="0" y="0" width="3395.62" height="391.38" filterUnits="userSpaceOnUse" color-interpolation-filters="sRGB">
<feFlood flood-opacity="0" result="BackgroundImageFix"/>
<feBlend mode="normal" in="SourceGraphic" in2="BackgroundImageFix" result="shape"/>
<feColorMatrix in="SourceAlpha" type="matrix" values="0 0 0 0 0 0 0 0 0 0 0 0 0 0 0 0 0 0 127 0" result="hardAlpha"/>
<feOffset dy="4"/>
<feGaussianBlur stdDeviation="2"/>
<feComposite in2="hardAlpha" operator="arithmetic" k2="-1" k3="1"/>
<feColorMatrix type="matrix" values="0 0 0 0 0.333333 0 0 0 0 0.155524 0 0 0 0 0.0277778 0 0 0 0.53 0"/>
<feBlend mode="normal" in2="shape" result="effect1_innerShadow_39_308"/>
</filter>
<linearGradient id="paint0_linear_39_308" x1="1697.81" y1="5" x2="1697.81" y2="382.38" gradientUnits="userSpaceOnUse">
<stop stop-color="#3551F1"/>
<stop offset="0.0677083" stop-color="#4755EE"/>
<stop offset="1" stop-color="#D673D8"/>
</linearGradient>
</defs>
</svg>
