<svg width="2499" height="619" viewBox="0 0 2499 619" fill="none" xmlns="http://www.w3.org/2000/svg">
<path d="M817.248 27.5H790.548V0.499987H817.248V27.5ZM786.948 27.5H760.248V0.499987H786.948V27.5ZM756.648 27.5H729.648V0.499987H756.648V27.5ZM726.048 27.5H699.348V0.499987H726.048V27.5ZM726.048 57.8H699.348V31.1H726.048V57.8ZM756.648 88.4H729.648V61.4H756.648V88.4ZM786.948 118.7H760.248V92H786.948V118.7ZM817.248 149H790.548V122.3H817.248V149ZM695.748 57.8H668.748V31.1H695.748V57.8ZM726.048 88.4H699.348V61.4H726.048V88.4ZM756.648 118.7H729.648V92H756.648V118.7ZM817.248 179.6H790.548V152.6H817.248V179.6ZM786.948 149H760.248V122.3H786.948V149ZM695.748 88.4H668.748V61.4H695.748V88.4ZM726.048 118.7H699.348V92H726.048V118.7ZM786.948 179.6H760.248V152.6H786.948V179.6ZM786.948 209.9H760.248V183.2H786.948V209.9ZM756.648 209.9H729.648V183.2H756.648V209.9ZM726.048 209.9H699.348V183.2H726.048V209.9ZM695.748 209.9H668.748V183.2H695.748V209.9ZM756.348 149H729.648V122.3H756.348V149ZM1029.49 27.5H1002.49V0.499987H1029.49V27.5ZM1059.79 57.8H1033.09V31.1H1059.79V57.8ZM1090.39 88.4H1063.39V61.4H1090.39V88.4ZM998.889 27.5H972.189V0.499987H998.889V27.5ZM1029.49 57.8H1002.49V31.1H1029.49V57.8ZM1059.79 88.4H1033.09V61.4H1059.79V88.4ZM1090.39 118.7H1063.39V92H1090.39V118.7ZM968.589 27.5H941.889V0.499987H968.589V27.5ZM1059.79 118.7H1033.09V92H1059.79V118.7ZM1090.39 149H1063.39V122.3H1090.39V149ZM938.289 27.5H911.289V0.499987H938.289V27.5ZM1059.79 149H1033.09V122.3H1059.79V149ZM938.289 57.8H911.289V31.1H938.289V57.8ZM1059.79 179.6H1033.09V152.6H1059.79V179.6ZM907.689 57.8H880.989V31.1H907.689V57.8ZM1029.49 179.6H1002.49V152.6H1029.49V179.6ZM907.689 88.4H880.989V61.4H907.689V88.4ZM1029.49 209.9H1002.49V183.2H1029.49V209.9ZM877.389 88.4H850.389V61.4H877.389V88.4ZM907.689 118.7H880.989V92H907.689V118.7ZM998.889 209.9H972.189V183.2H998.889V209.9ZM938.289 179.6H911.289V152.6H938.289V179.6ZM877.389 118.7H850.389V92H877.389V118.7ZM907.689 149H880.989V122.3H907.689V149ZM968.589 209.9H941.889V183.2H968.589V209.9ZM907.689 179.6H880.989V152.6H907.689V179.6ZM938.289 209.9H911.289V183.2H938.289V209.9ZM877.389 149H850.389V122.3H877.389V149ZM1183.74 27.5H1157.04V0.499987H1183.74V27.5ZM1153.44 27.5H1126.44V0.499987H1153.44V27.5ZM1183.74 57.8H1157.04V31.1H1183.74V57.8ZM1153.44 57.8H1126.44V31.1H1153.44V57.8ZM1183.74 88.4H1157.04V61.4H1183.74V88.4ZM1153.44 88.4H1126.44V61.4H1153.44V88.4ZM1183.74 118.7H1157.04V92H1183.74V118.7ZM1274.94 209.9H1248.24V183.2H1274.94V209.9ZM1153.44 118.7H1126.44V92H1153.44V118.7ZM1183.74 149H1157.04V122.3H1183.74V149ZM1244.64 209.9H1217.94V183.2H1244.64V209.9ZM1183.74 179.6H1157.04V152.6H1183.74V179.6ZM1214.34 209.9H1187.34V183.2H1214.34V209.9ZM1153.44 149H1126.44V122.3H1153.44V149ZM1153.44 179.6H1126.44V152.6H1153.44V179.6ZM1183.74 209.9H1157.04V183.2H1183.74V209.9ZM1153.44 209.9H1126.44V183.2H1153.44V209.9ZM1427.08 27.5H1400.08V0.499987H1427.08V27.5ZM1457.38 57.8H1430.68V31.1H1457.38V57.8ZM1396.48 27.5H1369.78V0.499987H1396.48V27.5ZM1427.08 57.8H1400.08V31.1H1427.08V57.8ZM1457.38 88.4H1430.68V61.4H1457.38V88.4ZM1366.18 27.5H1339.48V0.499987H1366.18V27.5ZM1427.08 88.4H1400.08V61.4H1427.08V88.4ZM1457.38 118.7H1430.68V92H1457.38V118.7ZM1427.08 118.7H1400.08V92H1427.08V118.7ZM1457.38 149H1430.68V122.3H1457.38V149ZM1335.88 57.8H1308.88V31.1H1335.88V57.8ZM1457.38 179.6H1430.68V152.6H1457.38V179.6ZM1396.48 149.3H1369.78V122.6H1396.48V149.3ZM1427.08 149H1400.08V122.3H1427.08V149ZM1335.88 88.4H1308.88V61.4H1335.88V88.4ZM1427.08 179.6H1400.08V152.6H1427.08V179.6ZM1457.38 209.9H1430.68V183.2H1457.38V209.9ZM1366.18 149.3H1339.48V122.6H1366.18V149.3ZM1335.88 118.7H1308.88V92H1335.88V118.7ZM1427.08 209.9H1400.08V183.2H1427.08V209.9ZM1335.88 149H1308.88V122.3H1335.88V149ZM1335.88 179.6H1308.88V152.6H1335.88V179.6ZM1335.88 209.9H1308.88V183.2H1335.88V209.9ZM1396.48 57.5H1369.78V30.8H1396.48V57.5ZM1366.18 57.5H1339.48V30.8H1366.18V57.5ZM1643.2 27.5H1616.5V0.499987H1643.2V27.5ZM1643.2 57.8H1616.5V31.1H1643.2V57.8ZM1643.2 88.4H1616.5V61.4H1643.2V88.4ZM1643.2 118.7H1616.5V92H1643.2V118.7ZM1521.7 27.5H1494.7V0.499987H1521.7V27.5ZM1552 57.8H1525.3V31.1H1552V57.8ZM1582.6 88.4H1555.6V61.4H1582.6V88.4ZM1612.9 118.7H1586.2V92H1612.9V118.7ZM1643.2 149H1616.5V122.3H1643.2V149ZM1521.7 57.8H1494.7V31.1H1521.7V57.8ZM1552 88.4H1525.3V61.4H1552V88.4ZM1582.6 118.7H1555.6V92H1582.6V118.7ZM1643.2 179.6H1616.5V152.6H1643.2V179.6ZM1612.9 149H1586.2V122.3H1612.9V149ZM1521.7 88.4H1494.7V61.4H1521.7V88.4ZM1552 118.7H1525.3V92H1552V118.7ZM1582.6 149H1555.6V122.3H1582.6V149ZM1612.9 179.6H1586.2V152.6H1612.9V179.6ZM1643.2 209.9H1616.5V183.2H1643.2V209.9ZM1521.7 118.7H1494.7V92H1521.7V118.7ZM1521.7 149H1494.7V122.3H1521.7V149ZM1521.7 179.6H1494.7V152.6H1521.7V179.6ZM1521.7 209.9H1494.7V183.2H1521.7V209.9ZM1795.64 27.5H1768.64V0.499987H1795.64V27.5ZM1825.94 57.8H1799.24V31.1H1825.94V57.8ZM1765.04 27.5H1738.34V0.499987H1765.04V27.5ZM1795.64 57.8H1768.64V31.1H1795.64V57.8ZM1825.94 88.4H1799.24V61.4H1825.94V88.4ZM1734.74 27.5H1708.04V0.499987H1734.74V27.5ZM1795.64 88.4H1768.64V61.4H1795.64V88.4ZM1825.94 118.7H1799.24V92H1825.94V118.7ZM1795.64 118.7H1768.64V92H1795.64V118.7ZM1825.94 149H1799.24V122.3H1825.94V149ZM1704.44 57.8H1677.44V31.1H1704.44V57.8ZM1825.94 179.6H1799.24V152.6H1825.94V179.6ZM1765.04 149.3H1738.34V122.6H1765.04V149.3ZM1795.64 149H1768.64V122.3H1795.64V149ZM1704.44 88.4H1677.44V61.4H1704.44V88.4ZM1795.64 179.6H1768.64V152.6H1795.64V179.6ZM1825.94 209.9H1799.24V183.2H1825.94V209.9ZM1734.74 149.3H1708.04V122.6H1734.74V149.3ZM1704.44 118.7H1677.44V92H1704.44V118.7ZM1795.64 209.9H1768.64V183.2H1795.64V209.9ZM1704.44 149H1677.44V122.3H1704.44V149ZM1704.44 179.6H1677.44V152.6H1704.44V179.6ZM1704.44 209.9H1677.44V183.2H1704.44V209.9ZM1765.04 57.5H1738.34V30.8H1765.04V57.5ZM1734.74 57.5H1708.04V30.8H1734.74V57.5ZM198.273 375H162.673V339H198.273V375ZM157.873 375H122.273V339H157.873V375ZM117.473 375H81.4734V339H117.473V375ZM76.6734 375H41.0734V339H76.6734V375ZM76.6734 415.4H41.0734V379.8H76.6734V415.4ZM117.473 456.2H81.4734V420.2H117.473V456.2ZM157.873 496.6H122.273V461H157.873V496.6ZM198.273 537H162.673V501.4H198.273V537ZM36.2734 415.4H0.273439V379.8H36.2734V415.4ZM76.6734 456.2H41.0734V420.2H76.6734V456.2ZM117.473 496.6H81.4734V461H117.473V496.6ZM198.273 577.8H162.673V541.8H198.273V577.8ZM157.873 537H122.273V501.4H157.873V537ZM36.2734 456.2H0.273439V420.2H36.2734V456.2ZM76.6734 496.6H41.0734V461H76.6734V496.6ZM157.873 577.8H122.273V541.8H157.873V577.8ZM157.873 618.2H122.273V582.6H157.873V618.2ZM117.473 618.2H81.4734V582.6H117.473V618.2ZM76.6734 618.2H41.0734V582.6H76.6734V618.2ZM36.2734 618.2H0.273439V582.6H36.2734V618.2ZM117.073 537H81.4734V501.4H117.073V537ZM440.461 375H404.861V339H440.461V375ZM481.261 415.4H445.261V379.8H481.261V415.4ZM400.061 375H364.461V339H400.061V375ZM440.461 415.4H404.861V379.8H440.461V415.4ZM481.261 456.2H445.261V420.2H481.261V456.2ZM359.661 375H323.661V339H359.661V375ZM440.461 456.2H404.861V420.2H440.461V456.2ZM318.861 375H283.261V339H318.861V375ZM440.461 496.6H404.861V461H440.461V496.6ZM278.461 375H242.461V339H278.461V375ZM318.861 415.4H283.261V379.8H318.861V415.4ZM400.061 496.6H364.461V461H400.061V496.6ZM278.461 415.4H242.461V379.8H278.461V415.4ZM318.861 456.2H283.261V420.2H318.861V456.2ZM359.661 496.6H323.661V461H359.661V496.6ZM278.461 456.2H242.461V420.2H278.461V456.2ZM318.861 496.6H283.261V461H318.861V496.6ZM278.461 496.6H242.461V461H278.461V496.6ZM318.861 537H283.261V501.4H318.861V537ZM318.861 577.8H283.261V541.8H318.861V577.8ZM278.461 537H242.461V501.4H278.461V537ZM278.461 577.8H242.461V541.8H278.461V577.8ZM318.861 618.2H283.261V582.6H318.861V618.2ZM278.461 618.2H242.461V582.6H278.461V618.2ZM726.027 375H690.027V339H726.027V375ZM685.227 375H649.627V339H685.227V375ZM644.827 375H609.227V339H644.827V375ZM604.427 375H568.427V339H604.427V375ZM685.227 456.2H649.627V420.2H685.227V456.2ZM563.627 375H528.027V339H563.627V375ZM604.427 415.4H568.427V379.8H604.427V415.4ZM644.827 456.2H609.227V420.2H644.827V456.2ZM563.627 415.4H528.027V379.8H563.627V415.4ZM604.427 456.2H568.427V420.2H604.427V456.2ZM563.627 456.2H528.027V420.2H563.627V456.2ZM604.427 496.6H568.427V461H604.427V496.6ZM726.027 618.2H690.027V582.6H726.027V618.2ZM563.627 496.6H528.027V461H563.627V496.6ZM604.427 537H568.427V501.4H604.427V537ZM685.227 618.2H649.627V582.6H685.227V618.2ZM604.427 577.8H568.427V541.8H604.427V577.8ZM563.627 537H528.027V501.4H563.627V537ZM644.827 618.2H609.227V582.6H644.827V618.2ZM563.627 577.8H528.027V541.8H563.627V577.8ZM604.427 618.2H568.427V582.6H604.427V618.2ZM563.627 618.2H528.027V582.6H563.627V618.2ZM967.433 375H931.433V339H967.433V375ZM926.633 375H891.033V339H926.633V375ZM886.233 375H850.633V339H886.233V375ZM845.833 375H809.833V339H845.833V375ZM926.633 456.2H891.033V420.2H926.633V456.2ZM805.033 375H769.433V339H805.033V375ZM845.833 415.4H809.833V379.8H845.833V415.4ZM886.233 456.2H850.633V420.2H886.233V456.2ZM805.033 415.4H769.433V379.8H805.033V415.4ZM845.833 456.2H809.833V420.2H845.833V456.2ZM805.033 456.2H769.433V420.2H805.033V456.2ZM845.833 496.6H809.833V461H845.833V496.6ZM967.433 618.2H931.433V582.6H967.433V618.2ZM805.033 496.6H769.433V461H805.033V496.6ZM845.833 537H809.833V501.4H845.833V537ZM926.633 618.2H891.033V582.6H926.633V618.2ZM845.833 577.8H809.833V541.8H845.833V577.8ZM805.033 537H769.433V501.4H805.033V537ZM886.233 618.2H850.633V582.6H886.233V618.2ZM805.033 577.8H769.433V541.8H805.033V577.8ZM845.833 618.2H809.833V582.6H845.833V618.2ZM805.033 618.2H769.433V582.6H805.033V618.2ZM1206.84 375H1170.84V339H1206.84V375ZM1247.24 415.4H1211.64V379.8H1247.24V415.4ZM1288.04 456.2H1252.04V420.2H1288.04V456.2ZM1166.04 375H1130.44V339H1166.04V375ZM1206.84 415.4H1170.84V379.8H1206.84V415.4ZM1247.24 456.2H1211.64V420.2H1247.24V456.2ZM1288.04 496.6H1252.04V461H1288.04V496.6ZM1125.64 375H1090.04V339H1125.64V375ZM1247.24 496.6H1211.64V461H1247.24V496.6ZM1288.04 537H1252.04V501.4H1288.04V537ZM1085.24 375H1049.24V339H1085.24V375ZM1247.24 537H1211.64V501.4H1247.24V537ZM1044.44 375H1008.84V339H1044.44V375ZM1085.24 415.4H1049.24V379.8H1085.24V415.4ZM1247.24 577.8H1211.64V541.8H1247.24V577.8ZM1044.44 415.4H1008.84V379.8H1044.44V415.4ZM1085.24 456.2H1049.24V420.2H1085.24V456.2ZM1206.84 577.8H1170.84V541.8H1206.84V577.8ZM1044.44 456.2H1008.84V420.2H1044.44V456.2ZM1085.24 496.6H1049.24V461H1085.24V496.6ZM1206.84 618.2H1170.84V582.6H1206.84V618.2ZM1044.44 496.6H1008.84V461H1044.44V496.6ZM1085.24 537H1049.24V501.4H1085.24V537ZM1166.04 618.2H1130.44V582.6H1166.04V618.2ZM1085.24 577.8H1049.24V541.8H1085.24V577.8ZM1044.44 537H1008.84V501.4H1044.44V537ZM1125.64 618.2H1090.04V582.6H1125.64V618.2ZM1044.44 577.8H1008.84V541.8H1044.44V577.8ZM1085.24 618.2H1049.24V582.6H1085.24V618.2ZM1044.44 618.2H1008.84V582.6H1044.44V618.2ZM1527.57 375H1491.97V339H1527.57V375ZM1568.37 415.4H1532.37V379.8H1568.37V415.4ZM1487.17 375H1451.57V339H1487.17V375ZM1527.57 415.4H1491.97V379.8H1527.57V415.4ZM1568.37 456.2H1532.37V420.2H1568.37V456.2ZM1446.77 375H1410.77V339H1446.77V375ZM1527.57 456.2H1491.97V420.2H1527.57V456.2ZM1405.97 375H1370.37V339H1405.97V375ZM1527.57 496.6H1491.97V461H1527.57V496.6ZM1365.57 375H1329.57V339H1365.57V375ZM1405.97 415.4H1370.37V379.8H1405.97V415.4ZM1568.37 577.8H1532.37V541.8H1568.37V577.8ZM1487.17 496.6H1451.57V461H1487.17V496.6ZM1527.57 537H1491.97V501.4H1527.57V537ZM1365.57 415.4H1329.57V379.8H1365.57V415.4ZM1405.97 456.2H1370.37V420.2H1405.97V456.2ZM1446.77 496.6H1410.77V461H1446.77V496.6ZM1527.57 577.8H1491.97V541.8H1527.57V577.8ZM1568.37 618.2H1532.37V582.6H1568.37V618.2ZM1487.17 537H1451.57V501.4H1487.17V537ZM1365.57 456.2H1329.57V420.2H1365.57V456.2ZM1405.97 496.6H1370.37V461H1405.97V496.6ZM1527.57 618.2H1491.97V582.6H1527.57V618.2ZM1365.57 496.6H1329.57V461H1365.57V496.6ZM1405.97 537H1370.37V501.4H1405.97V537ZM1405.97 577.8H1370.37V541.8H1405.97V577.8ZM1365.57 537H1329.57V501.4H1365.57V537ZM1365.57 577.8H1329.57V541.8H1365.57V577.8ZM1405.97 618.2H1370.37V582.6H1405.97V618.2ZM1365.57 618.2H1329.57V582.6H1365.57V618.2ZM1608.77 618.2H1572.77V582.6H1608.77V618.2ZM1890.25 375H1854.25V339H1890.25V375ZM1890.25 415.4H1854.25V379.8H1890.25V415.4ZM1890.25 456.2H1854.25V420.2H1890.25V456.2ZM1890.25 496.6H1854.25V461H1890.25V496.6ZM1727.85 375H1692.25V339H1727.85V375ZM1890.25 537H1854.25V501.4H1890.25V537ZM1687.45 375H1651.45V339H1687.45V375ZM1727.85 415.4H1692.25V379.8H1727.85V415.4ZM1890.25 577.8H1854.25V541.8H1890.25V577.8ZM1687.45 415.4H1651.45V379.8H1687.45V415.4ZM1727.85 456.2H1692.25V420.2H1727.85V456.2ZM1849.45 577.8H1813.85V541.8H1849.45V577.8ZM1687.45 456.2H1651.45V420.2H1687.45V456.2ZM1727.85 496.6H1692.25V461H1727.85V496.6ZM1849.45 618.2H1813.85V582.6H1849.45V618.2ZM1768.65 577.8H1732.65V541.8H1768.65V577.8ZM1687.45 496.6H1651.45V461H1687.45V496.6ZM1727.85 537H1692.25V501.4H1727.85V537ZM1809.05 618.2H1773.45V582.6H1809.05V618.2ZM1727.85 577.8H1692.25V541.8H1727.85V577.8ZM1768.65 618.2H1732.65V582.6H1768.65V618.2ZM1687.45 537H1651.45V501.4H1687.45V537ZM1687.45 577.8H1651.45V541.8H1687.45V577.8ZM1727.85 618.2H1692.25V582.6H1727.85V618.2ZM2135.09 375H2099.49V339H2135.09V375ZM2135.09 415.4H2099.49V379.8H2135.09V415.4ZM2135.09 456.2H2099.49V420.2H2135.09V456.2ZM2135.09 496.6H2099.49V461H2135.09V496.6ZM1973.09 375H1937.09V339H1973.09V375ZM2013.49 415.4H1977.89V379.8H2013.49V415.4ZM2054.29 456.2H2018.29V420.2H2054.29V456.2ZM2094.69 496.6H2059.09V461H2094.69V496.6ZM2135.09 537H2099.49V501.4H2135.09V537ZM1973.09 415.4H1937.09V379.8H1973.09V415.4ZM2013.49 456.2H1977.89V420.2H2013.49V456.2ZM2054.29 496.6H2018.29V461H2054.29V496.6ZM2135.09 577.8H2099.49V541.8H2135.09V577.8ZM2094.69 537H2059.09V501.4H2094.69V537ZM1973.09 456.2H1937.09V420.2H1973.09V456.2ZM2013.49 496.6H1977.89V461H2013.49V496.6ZM2054.29 537H2018.29V501.4H2054.29V537ZM2094.69 577.8H2059.09V541.8H2094.69V577.8ZM2135.09 618.2H2099.49V582.6H2135.09V618.2ZM1973.09 496.6H1937.09V461H1973.09V496.6ZM1973.09 537H1937.09V501.4H1973.09V537ZM1973.09 577.8H1937.09V541.8H1973.09V577.8ZM1973.09 618.2H1937.09V582.6H1973.09V618.2ZM2457.6 375H2422V339H2457.6V375ZM2498.4 415.4H2462.4V379.8H2498.4V415.4ZM2417.2 375H2381.6V339H2417.2V375ZM2457.6 415.4H2422V379.8H2457.6V415.4ZM2498.4 456.2H2462.4V420.2H2498.4V456.2ZM2376.8 375H2340.8V339H2376.8V375ZM2457.6 456.2H2422V420.2H2457.6V456.2ZM2336 375H2300.4V339H2336V375ZM2457.6 496.6H2422V461H2457.6V496.6ZM2336 415.4H2300.4V379.8H2336V415.4ZM2417.2 496.6H2381.6V461H2417.2V496.6ZM2295.6 415.4H2259.6V379.8H2295.6V415.4ZM2376.8 496.6H2340.8V461H2376.8V496.6ZM2498.4 618.2H2462.4V582.6H2498.4V618.2ZM2376.8 537H2340.8V501.4H2376.8V537ZM2457.6 618.2H2422V582.6H2457.6V618.2ZM2336 537H2300.4V501.4H2336V537ZM2417.2 618.2H2381.6V582.6H2417.2V618.2ZM2336 577.8H2300.4V541.8H2336V577.8ZM2376.8 618.2H2340.8V582.6H2376.8V618.2ZM2295.6 577.8H2259.6V541.8H2295.6V577.8ZM2336 618.2H2300.4V582.6H2336V618.2ZM2295.6 618.2H2259.6V582.6H2295.6V618.2Z" fill="white"/>
</svg>
